<svg xmlns="http://www.w3.org/2000/svg" viewBox="0 0 64 64" role="img" aria-label="Networking icon">   <rect x="3" y="6" width="58" height="52" rx="10" fill="#11161d"/>   <path d="M8 19h18l5 6h25v22a7 7 0 0 1-7 7H15a7 7 0 0 1-7-7z" fill="#0f8a80" stroke="rgba(255,255,255,0.22)" stroke-width="1.5"/>   <path d="M8 19a7 7 0 0 1 7-7h12l5 6h17a7 7 0 0 1 7 7v1H8z" fill="#22c7b9"/>   <path d="M8 26h48v21a7 7 0 0 1-7 7H15a7 7 0 0 1-7-7z" fill="#38d8cb" opacity="0.24"/>   <circle cx="48" cy="43" r="10" fill="#0f172a" stroke="rgba(255,255,255,0.35)" stroke-width="1"/>   <text x="48" y="46.2" text-anchor="middle" font-size="9" font-family="Arial, sans-serif" font-weight="700" fill="#f8fafc">N</text> </svg>

